<svg width="54" height="72" viewBox="0 0 54 72" fill="none" xmlns="http://www.w3.org/2000/svg">
<path d="M17.1086 55.6763C17.1086 55.6763 14.3546 57.2805 19.0638 57.8183C24.7698 58.4753 27.6881 58.383 33.9701 57.186C33.9701 57.186 35.6193 58.23 37.9301 59.1323C23.8338 65.169 6.03184 58.77 17.1063 55.6763H17.1086ZM15.3828 47.8013C15.3828 47.8013 12.2891 50.085 17.0006 50.5643C23.1093 51.1965 27.9108 51.2573 36.2426 49.653C36.2426 49.653 37.3923 50.814 39.2103 51.4553C22.1711 56.4345 3.18559 51.8423 15.3851 47.8013H15.3828ZM29.9021 34.4318C33.3693 38.4278 28.9863 42.0255 28.9863 42.0255C28.9863 42.0255 37.7996 37.4648 33.7563 31.7723C29.9741 26.451 27.0671 23.8163 42.7676 14.7083C42.7676 14.7083 18.1233 20.862 29.8998 34.434L29.9021 34.4318ZM48.5366 61.5128C48.5366 61.5128 50.5773 63.1868 46.2978 64.4895C38.1641 66.9488 12.4421 67.6868 5.29384 64.5818C2.72884 63.468 7.54384 61.911 9.05584 61.5938C10.6376 61.2428 11.5398 61.3148 11.5398 61.3148C8.68009 59.2988 -6.92816 65.2635 3.60859 66.9735C32.3546 71.6378 55.9999 64.8765 48.5366 61.5128ZM18.4316 39.6338C18.4316 39.6338 5.34334 42.7388 13.7898 43.8638C17.3651 44.343 24.4796 44.2395 31.1126 43.677C36.5238 43.218 41.9643 42.246 41.9643 42.246C41.9643 42.246 40.0541 43.065 38.6703 44.0168C25.3796 47.5088 -0.292913 45.8798 7.10059 42.3068C13.3466 39.294 18.4316 39.6338 18.4316 39.6338ZM41.9036 52.758C55.4036 45.7268 49.1576 38.988 44.8106 39.9038C43.7418 40.113 43.2626 40.3155 43.2626 40.3155C43.2626 40.3155 43.6496 39.6923 44.4123 39.4245C53.0366 36.3893 59.6696 48.3638 41.6336 53.1113C41.6336 53.1 41.8473 52.9245 41.9036 52.7603V52.758ZM33.7586 0C33.7586 0 41.2376 7.47675 26.6576 18.9833C14.9756 28.2173 23.9958 33.48 26.6576 39.492C19.8378 33.3383 14.8338 27.927 18.1863 22.887C23.1183 15.4688 36.7713 11.8823 33.7586 0ZM19.7546 71.7773C32.7168 72.5963 52.6249 71.3093 53.1086 65.1803C53.1086 65.1803 52.1928 67.5 42.3828 69.3495C31.3218 71.4353 17.6688 71.1878 9.57109 69.8535C9.57109 69.8535 11.2361 71.2238 19.7523 71.7773H19.7546Z" fill="black"/>
</svg>
