<svg width="61" height="61" viewBox="0 0 61 61" fill="none" xmlns="http://www.w3.org/2000/svg">
<path d="M54.615 43.263C47.208 53.13 31.392 49.8 21.249 50.277C21.249 50.277 19.452 50.379 17.646 50.676C17.646 50.676 18.33 50.385 19.203 50.082C26.325 47.619 29.691 47.124 34.02 44.901C42.15 40.737 50.244 31.662 51.891 22.236C48.795 31.302 39.381 39.105 30.81 42.273C24.945 44.439 14.334 46.545 14.331 46.545C14.1868 46.4712 14.0438 46.3952 13.902 46.317C6.687 42.807 6.477 27.177 19.584 22.14C25.332 19.932 30.825 21.144 37.038 19.665C43.662 18.09 51.336 13.125 54.453 6.633C57.948 17.007 62.148 33.231 54.615 43.263ZM54.741 3.423C53.903 5.43225 52.8306 7.33544 51.546 9.093C48.7535 6.21494 45.4115 3.92705 41.7181 2.36507C38.0246 0.803085 34.0551 -0.00117496 30.045 1.28834e-06C13.476 1.28834e-06 3.28287e-06 13.476 3.28287e-06 30.042C-0.00193143 34.1743 0.8513 38.2623 2.50603 42.0488C4.16075 45.8353 6.58116 49.2384 9.615 52.044L10.275 52.626C9.79394 52.1441 9.52393 51.491 9.52435 50.8101C9.52477 50.1292 9.79559 49.4763 10.2773 48.9951C10.7589 48.5138 11.412 48.2435 12.0929 48.2437C12.7738 48.2438 13.4267 48.5143 13.9082 48.9958C14.3897 49.4773 14.6602 50.1302 14.6604 50.8111C14.6605 51.492 14.3902 52.1451 13.909 52.6268C13.4277 53.1084 12.7748 53.3792 12.0939 53.3797C11.4131 53.3801 10.7599 53.1101 10.278 52.629L10.725 53.025C16.1262 57.5914 22.9722 60.0938 30.045 60.087C45.879 60.087 58.884 47.763 59.997 32.211C60.819 24.594 58.569 14.922 54.741 3.423Z" fill="black"/>
</svg>
