<svg width="50" height="59" viewBox="0 0 50 59" fill="none" xmlns="http://www.w3.org/2000/svg">
<path d="M24.9844 34.9721C23.9773 35.4348 22.8739 36.0378 20.665 37.2501C19.8275 37.7212 18.9523 38.1923 18.1378 38.6362C18.0813 38.5796 18.0227 38.5085 17.9661 38.4498C13.5965 33.7808 5.51462 30.4831 5.85799 24.2123C5.98571 21.9281 6.77087 15.9316 21.379 8.64949C33.4013 2.72418 42.9676 4.36568 44.6196 8.00671C46.9939 13.1971 39.492 22.8556 27.0761 24.2563C25.7019 24.535 24.2827 24.5014 22.9233 24.1578C21.5639 23.8142 20.2991 23.1696 19.2224 22.2714C18.565 21.5575 18.4666 21.5156 18.2237 21.658C17.8238 21.8673 18.0813 22.5143 18.2237 22.8849C18.6973 23.7424 19.338 24.4962 20.108 25.1018C20.8779 25.7074 21.7615 26.1525 22.7064 26.4108C27.5924 27.4669 32.6866 26.9623 37.2705 24.9682C44.7955 22.0558 50.6705 13.9592 48.9495 7.1713C47.2221 0.289145 35.7986 -1.98048 24.9907 1.85946C18.2222 4.14038 11.9687 7.73098 6.58662 12.4266C0.631992 17.996 -0.310195 22.8367 0.0750552 24.8635C1.46112 32.0597 11.3813 36.7434 15.3594 40.2128C15.1501 40.3279 14.9742 40.4221 14.8171 40.5122C12.8323 41.4983 5.26546 45.4534 3.37899 49.6367C1.23709 54.377 3.72237 57.7751 5.36387 58.2316C7.83761 58.8241 10.4346 58.6293 12.7923 57.6744C15.15 56.7195 17.1506 55.0521 18.5147 52.9051C19.6731 51.1247 20.3845 49.0909 20.5882 46.9767C20.792 44.8624 20.4822 42.7302 19.6851 40.7613C20.1554 40.3862 20.6569 40.0521 21.1842 39.7626C22.1976 39.1638 23.1628 38.5734 24.0192 38.1169C26.9512 36.7436 30.151 36.0364 33.3887 36.0462C40.185 36.846 41.5271 41.0859 41.2696 42.8718C41.1491 43.5055 40.8943 44.106 40.5223 44.6329C40.1503 45.1598 39.6698 45.601 39.113 45.9266C38.6419 46.226 38.4849 46.3265 38.5268 46.5401C38.5833 46.8541 38.8115 46.8395 39.2114 46.783C40.2325 46.4602 41.1321 45.8362 41.792 44.9928C42.452 44.1494 42.8413 43.1261 42.909 42.0574C43.1184 37.8699 39.1256 33.2762 32.0571 33.3181C29.9406 33.3217 27.8452 33.7392 25.8889 34.5471C25.5748 34.6769 25.2698 34.8165 24.9739 34.9658L24.9844 34.9721ZM14.8821 51.385C12.625 53.841 9.48437 54.7685 8.12762 53.9834C6.66199 53.1459 7.24196 49.5132 10.012 46.9149C11.6526 45.4367 13.4258 44.1127 15.3092 42.9598C15.6379 42.7504 16.1236 42.474 16.7078 42.1223L16.8648 42.0364L17.2082 41.8271C17.7022 43.4834 17.7472 45.2413 17.3385 46.9208C16.9297 48.6003 16.082 50.1409 14.8821 51.385Z" fill="black"/>
</svg>
